<?xml version="1.0" standalone="no"?>
<!DOCTYPE svg PUBLIC "-//W3C//DTD SVG 20010904//EN"
 "http://www.w3.org/TR/2001/REC-SVG-20010904/DTD/svg10.dtd">
<svg version="1.0" xmlns="http://www.w3.org/2000/svg"
 width="260.000000pt" height="280.000000pt" viewBox="0 0 260.000000 280.000000"
 preserveAspectRatio="xMidYMid meet">
<metadata>
Created by potrace 1.16, written by Peter Selinger 2001-2019
</metadata>
<g transform="translate(0.000000,280.000000) scale(0.100000,-0.100000)"
fill="#000000" stroke="none">
<path d="M1555 2245 c-14 -16 -26 -22 -30 -15 -3 5 -17 10 -30 10 -29 0 -47
-29 -69 -117 -19 -71 -19 -73 -7 -73 5 0 15 24 21 53 20 84 37 117 59 117 29
0 36 -54 18 -142 -8 -40 -18 -81 -22 -90 -4 -10 -3 -18 3 -18 15 0 31 56 47
161 15 100 33 132 63 113 26 -18 23 -172 -6 -236 -11 -26 -24 -69 -27 -95 -11
-80 -37 -163 -51 -163 -9 0 -11 -10 -8 -32 3 -18 -4 -78 -16 -133 -34 -162
-34 -161 -21 -149 6 6 25 76 41 155 16 79 36 162 43 185 8 22 20 72 26 111 6
38 19 90 30 114 10 24 22 64 26 89 4 25 11 53 17 63 10 19 43 23 54 6 12 -21
5 -146 -12 -191 -8 -24 -20 -68 -25 -98 -21 -126 -31 -160 -44 -160 -10 0 -12
-9 -8 -35 5 -34 -21 -211 -35 -231 -4 -5 -50 -16 -102 -23 -52 -7 -97 -15 -99
-17 -14 -13 18 -16 73 -6 92 17 126 15 175 -13 48 -28 51 -29 51 -16 0 6 -18
20 -41 33 -32 18 -39 26 -35 44 3 12 15 73 25 136 27 154 35 176 66 170 15 -2
25 0 25 7 0 6 -12 11 -26 11 -20 0 -25 4 -20 16 3 9 6 33 6 54 0 32 4 38 25
42 35 7 48 -14 41 -64 -8 -56 -16 -182 -16 -233 1 -22 -4 -80 -11 -130 -10
-76 -9 -98 4 -142 17 -57 14 -67 -15 -52 -10 6 -24 8 -31 6 -7 -2 6 -13 28
-24 22 -12 48 -30 58 -41 28 -30 50 -178 45 -294 -5 -106 6 -133 18 -41 14
118 -12 305 -51 351 -41 50 -46 135 -22 432 9 113 17 208 17 213 0 4 -9 16
-20 27 -16 16 -25 18 -40 10 -24 -13 -25 -3 -4 40 10 19 19 69 22 121 4 78 2
92 -14 110 -13 15 -26 19 -46 15 -25 -5 -28 -3 -28 23 0 31 -27 61 -54 61 -9
0 -28 -11 -41 -25z"/>
<path d="M1160 2253 c0 -11 140 -167 219 -244 73 -71 85 -100 66 -147 -15 -35
-31 -42 -99 -42 -50 0 -96 -20 -96 -41 0 -6 10 -3 22 5 34 24 75 21 81 -6 2
-13 8 -30 11 -39 5 -12 0 -18 -18 -23 -14 -3 -64 -41 -112 -84 -108 -97 -129
-109 -153 -88 -23 21 -50 20 -58 0 -8 -21 24 -46 48 -39 12 4 30 -16 69 -75
59 -90 122 -150 156 -150 45 0 85 91 52 118 -7 5 -36 16 -65 25 -29 8 -74 27
-100 43 l-48 29 90 6 c100 6 130 17 139 51 3 13 21 32 39 43 47 30 48 70 3
124 -41 49 -47 81 -15 81 11 0 34 13 50 29 23 23 29 38 29 71 0 39 -6 48 -108
153 -59 62 -125 133 -146 160 -35 43 -56 58 -56 40z m248 -565 c18 -18 14 -53
-8 -73 -15 -14 -29 -16 -66 -11 -38 5 -45 3 -41 -8 4 -11 -9 -20 -46 -32 -29
-9 -59 -19 -67 -22 -23 -8 14 31 93 99 69 60 108 74 135 47z"/>
<path d="M1235 1207 c-32 -56 -32 -104 1 -168 22 -44 24 -55 14 -84 -6 -19
-28 -49 -49 -68 -67 -60 -159 -61 -334 -2 -54 18 -100 29 -102 25 -7 -12 156
-68 234 -81 118 -20 191 3 246 75 34 45 36 97 6 146 -28 46 -26 95 4 149 28
48 29 51 15 51 -5 0 -21 -20 -35 -43z"/>
</g>
</svg>
