<?xml version="1.0" standalone="no"?>
<!DOCTYPE svg PUBLIC "-//W3C//DTD SVG 20010904//EN"
 "http://www.w3.org/TR/2001/REC-SVG-20010904/DTD/svg10.dtd">
<svg version="1.0" xmlns="http://www.w3.org/2000/svg"
 width="360.000000pt" height="360.000000pt" viewBox="0 0 360.000000 360.000000"
 preserveAspectRatio="xMidYMid meet">
<metadata>
Created by potrace 1.16, written by Peter Selinger 2001-2019
</metadata>
<g transform="translate(0.000000,360.000000) scale(0.100000,-0.100000)"
fill="#000000" stroke="none">
<path d="M1720 2775 c-374 -80 -655 -341 -766 -710 -25 -82 -27 -105 -28 -260
-1 -148 2 -181 22 -255 44 -160 127 -309 239 -430 51 -56 163 -150 177 -150 3
0 6 36 6 80 0 67 3 83 20 100 20 20 45 25 74 14 13 -5 16 -22 16 -80 0 -108
17 -90 22 22 3 107 16 128 73 122 l30 -3 3 -78 c2 -56 6 -77 15 -74 8 2 13 32
15 83 1 43 4 88 7 100 5 25 45 45 74 37 18 -4 21 -14 23 -81 2 -49 7 -77 16
-80 9 -3 12 53 12 255 0 291 3 303 64 303 64 0 66 -7 66 -289 l0 -251 24 -10
c40 -15 46 -40 46 -191 l0 -142 68 6 c202 19 418 126 577 286 l69 71 -29 31
c-72 75 -170 101 -375 97 -137 -3 -147 -1 -187 21 -74 43 -90 117 -42 199 26
45 24 55 -11 75 -37 22 -42 68 -10 90 20 14 20 15 -9 20 -45 9 -55 37 -35 96
14 44 14 52 0 79 -9 17 -33 38 -60 50 -87 41 -99 96 -35 157 22 22 67 80 100
128 70 104 73 128 29 231 -33 76 -33 68 12 225 24 84 27 106 16 112 -21 14
-257 9 -328 -6z"/>
</g>
</svg>
